<svg width="193" height="30" viewBox="0 0 193 30" fill="none" xmlns="http://www.w3.org/2000/svg">
<path d="M79.1529 0.0464149L76.9519 8.26908H68.397L62.7907 29.1165H53.073L58.6793 8.26908L56.383 5.29612L47.7353 9.61755C47.6327 9.66885 47.5204 9.69572 47.4055 9.69572L31.4072 9.64197C30.6353 9.63953 30.3837 10.6802 31.0726 11.0295L46.2794 18.7343C46.8168 19.0079 46.8144 19.775 46.2769 20.0461L37.8808 24.2429L28.3414 29.0138C28.2388 29.0651 28.1265 29.092 28.0117 29.092H8.96224C8.84986 29.092 8.7375 29.0651 8.6349 29.0138L0.404904 24.8976C-0.134968 24.6289 -0.134968 23.857 0.404904 23.5858L8.6349 19.472C8.7375 19.4207 8.84986 19.3939 8.96224 19.3939H25.0778C25.8497 19.3939 26.0965 18.3508 25.4051 18.0039L9.86122 10.2307C9.31646 9.95955 9.32134 9.18272 9.8661 8.91645L28.0336 0.0732903C28.1338 0.0244331 28.2437 0 28.3537 0H56.5443C56.6322 0 56.7177 0.0171006 56.7959 0.0464149H79.1529Z" fill="#C8FF00"/>
<path d="M80.4819 0.0488548H91.8192C97.1764 0.0488548 100.582 1.21166 102.534 3.1635C104.153 4.78312 104.818 6.9426 104.818 9.22668C104.818 13.7533 102.451 17.657 96.7196 19.4427L100.748 29.1189H90.2826L87.0434 20.8132H84.6347L82.3922 29.1189H72.6745L80.4819 0.0488548ZM89.9919 13.8779C93.2312 13.8779 94.9338 12.3829 94.9338 10.5556C94.9338 9.97419 94.7262 9.43432 94.3109 9.01904C93.771 8.47917 92.8159 8.18846 91.4454 8.18846H87.9986L86.462 13.8779H89.9919Z" fill="#F5F5F3"/>
<path d="M110.783 18.0307L105.094 0.048851H115.31L117.677 9.76655L125.235 0.048851H136.738L120.21 19.2351L117.552 29.1189H107.835L110.783 18.0307Z" fill="#F5F5F3"/>
<path d="M137.273 0.048851H147.573C153.22 0.048851 156.75 1.58541 158.951 3.78642C161.111 5.94591 162.108 8.76986 162.108 12.2998C162.108 16.6603 160.446 20.647 157.332 23.7617C153.843 27.2501 148.818 29.1189 142.091 29.1189H129.466L137.273 0.048851ZM143.171 20.647C146.119 20.647 148.652 19.7749 150.147 18.2799C151.352 17.0756 152.224 15.1237 152.224 13.338C152.224 11.7599 151.767 10.7217 151.019 9.97419C150.106 9.06056 148.652 8.5207 146.327 8.5207H144.707L141.468 20.647H143.171Z" fill="#F5F5F3"/>
<path d="M168.207 0.048851H193L190.841 8.02234H175.6L174.81 10.9709H189.013L187.144 17.9892H172.942L172.07 21.1454H187.518L185.4 29.1189H160.4L168.207 0.048851Z" fill="#F5F5F3"/>
</svg>
